# xmcd
#
# Track frame offsets: 
#        150
#        13410
#        26180
#        41450
#        59697
#        74402
#        94570
#        110767
#        128222
#        147707
#        168445
#        185745
#        199952
#
# Disc length: 3016 seconds
#
# Revision: 4
# Processed by: cddbd v1.5.2PL0 Copyright (c) Steve Scherf et al.
# Submitted via: ExactAudioCopy v0.95a5
#
DISCID=d00bc60d
DTITLE=Hans Theessink - Crazy Moon
DYEAR=1997
DGENRE=Blues
TTITLE0=Rolling Stone
TTITLE1=Paint The Town
TTITLE2=Lazy, Long Hot Summer's Day
TTITLE3=Power Of Love
TTITLE4=Homecooking
TTITLE5=Homeless
TTITLE6=Sail Away
TTITLE7=Roll With The Punches
TTITLE8=Crazy Moon
TTITLE9=Train
TTITLE10=Tears Are Rolling
TTITLE11=Get Down 'n Play The Blues
TTITLE12=Man With A Broken Heart
EXTD=
EXTT0=
EXTT1=
EXTT2=
EXTT3=
EXTT4=
EXTT5=
EXTT6=
EXTT7=
EXTT8=
EXTT9=
EXTT10=
EXTT11=
EXTT12=
PLAYORDER=
